<svg width="295" height="295" viewBox="0 0 295 295" fill="none" xmlns="http://www.w3.org/2000/svg">
<circle cx="147.5" cy="147.5" r="147.5" fill="white" fill-opacity="0.2"/>
<circle cx="147.5" cy="147.5" r="107.5" fill="white"/>
<path d="M85.2912 190V176.909H90.2003C91.206 176.909 92.0497 177.097 92.7315 177.472C93.4176 177.847 93.9354 178.362 94.2848 179.018C94.6385 179.67 94.8153 180.412 94.8153 181.243C94.8153 182.082 94.6385 182.828 94.2848 183.48C93.9311 184.132 93.4091 184.646 92.7188 185.021C92.0284 185.391 91.1783 185.577 90.1683 185.577H86.9148V183.627H89.8487C90.4368 183.627 90.9183 183.525 91.2933 183.32C91.6683 183.116 91.9453 182.835 92.1243 182.477C92.3075 182.119 92.3991 181.707 92.3991 181.243C92.3991 180.778 92.3075 180.369 92.1243 180.016C91.9453 179.662 91.6662 179.387 91.2869 179.191C90.9119 178.991 90.4283 178.891 89.8359 178.891H87.6626V190H85.2912ZM96.7729 190V180.182H99.0868V190H96.7729ZM97.9363 178.788C97.5698 178.788 97.2544 178.667 96.9902 178.424C96.726 178.177 96.5939 177.881 96.5939 177.536C96.5939 177.186 96.726 176.89 96.9902 176.647C97.2544 176.4 97.5698 176.276 97.9363 176.276C98.307 176.276 98.6223 176.4 98.8823 176.647C99.1465 176.89 99.2786 177.186 99.2786 177.536C99.2786 177.881 99.1465 178.177 98.8823 178.424C98.6223 178.667 98.307 178.788 97.9363 178.788ZM103.78 184.247V190H101.466V180.182H103.678V181.85H103.793C104.019 181.3 104.379 180.864 104.873 180.54C105.372 180.216 105.988 180.054 106.721 180.054C107.398 180.054 107.988 180.199 108.491 180.489C108.998 180.778 109.39 181.198 109.667 181.748C109.949 182.298 110.087 182.964 110.083 183.749V190H107.769V184.107C107.769 183.45 107.598 182.937 107.257 182.566C106.921 182.195 106.454 182.01 105.858 182.01C105.453 182.01 105.093 182.099 104.777 182.278C104.466 182.453 104.221 182.707 104.042 183.039C103.868 183.371 103.78 183.774 103.78 184.247ZM117.338 180.182V181.972H111.694V180.182H117.338ZM113.087 177.83H115.401V187.047C115.401 187.358 115.448 187.597 115.542 187.763C115.64 187.925 115.767 188.036 115.925 188.095C116.083 188.155 116.257 188.185 116.449 188.185C116.594 188.185 116.726 188.174 116.846 188.153C116.969 188.131 117.063 188.112 117.127 188.095L117.517 189.904C117.393 189.947 117.216 189.994 116.986 190.045C116.76 190.096 116.483 190.126 116.155 190.134C115.576 190.151 115.054 190.064 114.589 189.872C114.125 189.676 113.756 189.374 113.483 188.964C113.215 188.555 113.083 188.044 113.087 187.43V177.83ZM125.531 185.871V180.182H127.845V190H125.601V188.255H125.499C125.277 188.805 124.913 189.254 124.406 189.604C123.903 189.953 123.283 190.128 122.546 190.128C121.902 190.128 121.333 189.985 120.839 189.7C120.349 189.41 119.965 188.99 119.688 188.44C119.411 187.886 119.273 187.217 119.273 186.433V180.182H121.587V186.075C121.587 186.697 121.757 187.192 122.098 187.558C122.439 187.925 122.887 188.108 123.441 188.108C123.781 188.108 124.112 188.025 124.431 187.859C124.751 187.692 125.013 187.445 125.218 187.117C125.426 186.785 125.531 186.369 125.531 185.871ZM134.216 178.897V176.909H144.661V178.897H140.614V190H138.262V178.897H134.216ZM149.494 190.192C148.51 190.192 147.66 189.987 146.944 189.578C146.232 189.165 145.685 188.581 145.301 187.827C144.918 187.068 144.726 186.175 144.726 185.148C144.726 184.138 144.918 183.252 145.301 182.489C145.689 181.722 146.23 181.126 146.925 180.7C147.619 180.269 148.436 180.054 149.373 180.054C149.978 180.054 150.549 180.152 151.086 180.348C151.627 180.54 152.105 180.838 152.518 181.243C152.936 181.648 153.264 182.163 153.502 182.79C153.741 183.412 153.86 184.153 153.86 185.014V185.724H145.813V184.164H151.642C151.638 183.721 151.542 183.327 151.355 182.982C151.167 182.632 150.905 182.357 150.568 182.157C150.236 181.957 149.848 181.857 149.405 181.857C148.932 181.857 148.517 181.972 148.159 182.202C147.801 182.428 147.521 182.726 147.321 183.097C147.125 183.463 147.025 183.866 147.021 184.305V185.666C147.021 186.237 147.125 186.727 147.334 187.136C147.543 187.541 147.835 187.852 148.21 188.07C148.585 188.283 149.024 188.389 149.526 188.389C149.863 188.389 150.168 188.342 150.441 188.249C150.713 188.151 150.95 188.008 151.15 187.82C151.35 187.633 151.502 187.401 151.604 187.124L153.764 187.366C153.628 187.937 153.368 188.436 152.985 188.862C152.605 189.284 152.119 189.612 151.527 189.847C150.935 190.077 150.257 190.192 149.494 190.192ZM155.818 190V180.182H158.061V181.818H158.164C158.343 181.251 158.65 180.815 159.084 180.508C159.523 180.197 160.024 180.041 160.586 180.041C160.714 180.041 160.857 180.048 161.015 180.06C161.176 180.069 161.311 180.084 161.417 180.105V182.234C161.319 182.2 161.164 182.17 160.951 182.144C160.742 182.114 160.539 182.099 160.343 182.099C159.922 182.099 159.542 182.191 159.206 182.374C158.873 182.553 158.611 182.803 158.419 183.122C158.228 183.442 158.132 183.81 158.132 184.228V190H155.818ZM165.064 186.919L165.058 184.126H165.428L168.957 180.182H171.661L167.32 185.014H166.841L165.064 186.919ZM162.955 190V176.909H165.268V190H162.955ZM169.116 190L165.92 185.532L167.48 183.902L171.884 190H169.116ZM179.46 185.871V180.182H181.774V190H179.531V188.255H179.428C179.207 188.805 178.843 189.254 178.335 189.604C177.833 189.953 177.213 190.128 176.475 190.128C175.832 190.128 175.263 189.985 174.769 189.7C174.279 189.41 173.895 188.99 173.618 188.44C173.341 187.886 173.203 187.217 173.203 186.433V180.182H175.517V186.075C175.517 186.697 175.687 187.192 176.028 187.558C176.369 187.925 176.816 188.108 177.37 188.108C177.711 188.108 178.041 188.025 178.361 187.859C178.681 187.692 178.943 187.445 179.147 187.117C179.356 186.785 179.46 186.369 179.46 185.871ZM186.468 184.247V190H184.154V180.182H186.365V181.85H186.48C186.706 181.3 187.066 180.864 187.561 180.54C188.059 180.216 188.675 180.054 189.408 180.054C190.086 180.054 190.676 180.199 191.179 180.489C191.686 180.778 192.078 181.198 192.355 181.748C192.636 182.298 192.775 182.964 192.77 183.749V190H190.456V184.107C190.456 183.45 190.286 182.937 189.945 182.566C189.608 182.195 189.142 182.01 188.545 182.01C188.14 182.01 187.78 182.099 187.465 182.278C187.154 182.453 186.909 182.707 186.73 183.039C186.555 183.371 186.468 183.774 186.468 184.247ZM199.405 190.192C198.425 190.192 197.583 189.977 196.88 189.546C196.181 189.116 195.642 188.521 195.263 187.763C194.888 187 194.701 186.122 194.701 185.129C194.701 184.132 194.892 183.252 195.276 182.489C195.659 181.722 196.201 181.126 196.9 180.7C197.603 180.269 198.434 180.054 199.392 180.054C200.189 180.054 200.895 180.201 201.508 180.495C202.126 180.785 202.618 181.196 202.985 181.729C203.351 182.257 203.56 182.875 203.611 183.582H201.4C201.31 183.109 201.097 182.715 200.76 182.4C200.428 182.08 199.983 181.92 199.424 181.92C198.951 181.92 198.536 182.048 198.178 182.304C197.82 182.555 197.541 182.918 197.341 183.391C197.145 183.864 197.047 184.43 197.047 185.091C197.047 185.76 197.145 186.335 197.341 186.817C197.537 187.294 197.811 187.663 198.165 187.923C198.523 188.178 198.943 188.306 199.424 188.306C199.765 188.306 200.07 188.242 200.338 188.114C200.611 187.982 200.839 187.793 201.022 187.545C201.206 187.298 201.331 186.998 201.4 186.644H203.611C203.556 187.339 203.351 187.955 202.998 188.491C202.644 189.024 202.162 189.442 201.553 189.744C200.944 190.043 200.228 190.192 199.405 190.192ZM205.511 190V180.182H207.825V190H205.511ZM206.675 178.788C206.308 178.788 205.993 178.667 205.729 178.424C205.464 178.177 205.332 177.881 205.332 177.536C205.332 177.186 205.464 176.89 205.729 176.647C205.993 176.4 206.308 176.276 206.675 176.276C207.045 176.276 207.361 176.4 207.621 176.647C207.885 176.89 208.017 177.186 208.017 177.536C208.017 177.881 207.885 178.177 207.621 178.424C207.361 178.667 207.045 178.788 206.675 178.788Z" fill="#E75D5D"/>
<path d="M169.4 113.8H168.2V99.4C168.2 91.4608 161.739 85 153.8 85H144.2C136.261 85 129.8 91.4608 129.8 99.4V113.8H128.6C127.646 113.804 126.733 114.184 126.059 114.859C125.384 115.533 125.004 116.446 125 117.4V153.4C125 155.378 126.622 157 128.6 157H169.4C171.378 157 173 155.378 173 153.4V117.4C172.996 116.446 172.616 115.533 171.941 114.859C171.267 114.184 170.354 113.804 169.4 113.8V113.8ZM139.4 99.4C139.4 96.7552 141.555 94.6 144.2 94.6H153.8C156.445 94.6 158.6 96.7552 158.6 99.4V113.8H139.4V99.4Z" fill="#E75D5D"/>
</svg>
