<svg width="295" height="295" viewBox="0 0 295 295" fill="none" xmlns="http://www.w3.org/2000/svg">
<circle cx="147.5" cy="147.5" r="147.5" fill="white" fill-opacity="0.2"/>
<circle cx="147.5" cy="147.5" r="107.5" fill="white"/>
<path d="M118.8 88C111.192 88 105 94.1916 105 101.8V111C105 113.541 107.059 115.6 109.6 115.6V115.6C112.141 115.6 114.2 113.541 114.2 111V101.8C114.2 99.2654 116.265 97.2 118.8 97.2H128C130.535 97.2 132.6 99.2654 132.6 101.8V114.45C132.6 115.085 132.085 115.6 131.45 115.6V115.6C129.555 115.6 128 117.155 128 119.05V153.55C128 155.445 129.555 157 131.45 157H170.55C171.464 156.996 172.339 156.632 172.986 155.986C173.632 155.339 173.996 154.464 174 153.55V119.05C174 117.155 172.445 115.6 170.55 115.6H146.8C144.039 115.6 141.8 113.361 141.8 110.6V101.8C141.8 94.1916 135.608 88 128 88H118.8Z" fill="#0F9C8F"/>
<path d="M90.2912 192V178.909H95.2003C96.206 178.909 97.0497 179.097 97.7315 179.472C98.4176 179.847 98.9354 180.362 99.2848 181.018C99.6385 181.67 99.8153 182.412 99.8153 183.243C99.8153 184.082 99.6385 184.828 99.2848 185.48C98.9311 186.132 98.4091 186.646 97.7188 187.021C97.0284 187.391 96.1783 187.577 95.1683 187.577H91.9148V185.627H94.8487C95.4368 185.627 95.9183 185.525 96.2933 185.32C96.6683 185.116 96.9453 184.835 97.1243 184.477C97.3075 184.119 97.3991 183.707 97.3991 183.243C97.3991 182.778 97.3075 182.369 97.1243 182.016C96.9453 181.662 96.6662 181.387 96.2869 181.191C95.9119 180.991 95.4283 180.891 94.8359 180.891H92.6626V192H90.2912ZM101.773 192V182.182H104.087V192H101.773ZM102.936 180.788C102.57 180.788 102.254 180.667 101.99 180.424C101.726 180.177 101.594 179.881 101.594 179.536C101.594 179.186 101.726 178.89 101.99 178.647C102.254 178.4 102.57 178.276 102.936 178.276C103.307 178.276 103.622 178.4 103.882 178.647C104.146 178.89 104.279 179.186 104.279 179.536C104.279 179.881 104.146 180.177 103.882 180.424C103.622 180.667 103.307 180.788 102.936 180.788ZM108.78 186.247V192H106.466V182.182H108.678V183.85H108.793C109.019 183.3 109.379 182.864 109.873 182.54C110.372 182.216 110.988 182.054 111.721 182.054C112.398 182.054 112.988 182.199 113.491 182.489C113.998 182.778 114.39 183.198 114.667 183.748C114.949 184.298 115.087 184.964 115.083 185.749V192H112.769V186.107C112.769 185.45 112.598 184.937 112.257 184.566C111.921 184.195 111.454 184.01 110.858 184.01C110.453 184.01 110.093 184.099 109.777 184.278C109.466 184.453 109.221 184.707 109.042 185.039C108.868 185.371 108.78 185.774 108.78 186.247ZM122.338 182.182V183.972H116.694V182.182H122.338ZM118.087 179.83H120.401V189.047C120.401 189.358 120.448 189.597 120.542 189.763C120.64 189.925 120.767 190.036 120.925 190.095C121.083 190.155 121.257 190.185 121.449 190.185C121.594 190.185 121.726 190.174 121.846 190.153C121.969 190.131 122.063 190.112 122.127 190.095L122.517 191.904C122.393 191.947 122.216 191.994 121.986 192.045C121.76 192.096 121.483 192.126 121.155 192.134C120.576 192.151 120.054 192.064 119.589 191.872C119.125 191.676 118.756 191.374 118.483 190.964C118.215 190.555 118.083 190.044 118.087 189.43V179.83ZM130.531 187.871V182.182H132.845V192H130.601V190.255H130.499C130.277 190.805 129.913 191.254 129.406 191.604C128.903 191.953 128.283 192.128 127.546 192.128C126.902 192.128 126.333 191.985 125.839 191.7C125.349 191.41 124.965 190.99 124.688 190.44C124.411 189.886 124.273 189.217 124.273 188.433V182.182H126.587V188.075C126.587 188.697 126.757 189.192 127.098 189.558C127.439 189.925 127.887 190.108 128.441 190.108C128.781 190.108 129.112 190.025 129.431 189.859C129.751 189.692 130.013 189.445 130.218 189.117C130.426 188.785 130.531 188.369 130.531 187.871ZM139.216 180.897V178.909H149.661V180.897H145.614V192H143.262V180.897H139.216ZM154.494 192.192C153.51 192.192 152.66 191.987 151.944 191.578C151.232 191.165 150.685 190.581 150.301 189.827C149.918 189.068 149.726 188.175 149.726 187.148C149.726 186.138 149.918 185.252 150.301 184.489C150.689 183.722 151.23 183.126 151.925 182.7C152.619 182.269 153.436 182.054 154.373 182.054C154.978 182.054 155.549 182.152 156.086 182.348C156.627 182.54 157.105 182.838 157.518 183.243C157.936 183.648 158.264 184.163 158.502 184.79C158.741 185.412 158.86 186.153 158.86 187.014V187.724H150.813V186.164H156.642C156.638 185.721 156.542 185.327 156.355 184.982C156.167 184.632 155.905 184.357 155.568 184.157C155.236 183.957 154.848 183.857 154.405 183.857C153.932 183.857 153.517 183.972 153.159 184.202C152.801 184.428 152.521 184.726 152.321 185.097C152.125 185.463 152.025 185.866 152.021 186.305V187.666C152.021 188.237 152.125 188.727 152.334 189.136C152.543 189.541 152.835 189.852 153.21 190.07C153.585 190.283 154.024 190.389 154.526 190.389C154.863 190.389 155.168 190.342 155.441 190.249C155.713 190.151 155.95 190.008 156.15 189.82C156.35 189.633 156.502 189.401 156.604 189.124L158.764 189.366C158.628 189.937 158.368 190.436 157.985 190.862C157.605 191.284 157.119 191.612 156.527 191.847C155.935 192.077 155.257 192.192 154.494 192.192ZM160.818 192V182.182H163.061V183.818H163.164C163.343 183.251 163.65 182.815 164.084 182.508C164.523 182.197 165.024 182.041 165.586 182.041C165.714 182.041 165.857 182.048 166.015 182.06C166.176 182.069 166.311 182.084 166.417 182.105V184.234C166.319 184.2 166.164 184.17 165.951 184.144C165.742 184.114 165.539 184.099 165.343 184.099C164.922 184.099 164.542 184.191 164.206 184.374C163.873 184.553 163.611 184.803 163.419 185.122C163.228 185.442 163.132 185.81 163.132 186.228V192H160.818ZM168.057 192V178.909H170.371V183.805H170.467C170.586 183.567 170.754 183.313 170.972 183.045C171.189 182.772 171.483 182.54 171.854 182.348C172.224 182.152 172.697 182.054 173.273 182.054C174.031 182.054 174.715 182.248 175.325 182.636C175.938 183.019 176.424 183.588 176.782 184.342C177.144 185.092 177.325 186.013 177.325 187.104C177.325 188.182 177.148 189.098 176.795 189.852C176.441 190.607 175.96 191.182 175.35 191.578C174.741 191.974 174.05 192.173 173.279 192.173C172.717 192.173 172.25 192.079 171.879 191.891C171.509 191.704 171.21 191.478 170.984 191.214C170.763 190.945 170.59 190.692 170.467 190.453H170.332V192H168.057ZM170.326 187.091C170.326 187.726 170.415 188.282 170.594 188.759C170.778 189.237 171.04 189.609 171.381 189.878C171.726 190.142 172.143 190.274 172.634 190.274C173.145 190.274 173.573 190.138 173.918 189.865C174.263 189.588 174.523 189.211 174.698 188.734C174.877 188.252 174.967 187.705 174.967 187.091C174.967 186.482 174.879 185.94 174.705 185.467C174.53 184.994 174.27 184.624 173.925 184.355C173.58 184.087 173.149 183.952 172.634 183.952C172.139 183.952 171.719 184.082 171.374 184.342C171.029 184.602 170.767 184.967 170.588 185.435C170.413 185.904 170.326 186.456 170.326 187.091ZM185.55 187.871V182.182H187.864V192H185.621V190.255H185.518C185.297 190.805 184.932 191.254 184.425 191.604C183.922 191.953 183.302 192.128 182.565 192.128C181.922 192.128 181.353 191.985 180.858 191.7C180.368 191.41 179.985 190.99 179.708 190.44C179.431 189.886 179.292 189.217 179.292 188.433V182.182H181.606V188.075C181.606 188.697 181.777 189.192 182.118 189.558C182.459 189.925 182.906 190.108 183.46 190.108C183.801 190.108 184.131 190.025 184.451 189.859C184.77 189.692 185.032 189.445 185.237 189.117C185.446 188.785 185.55 188.369 185.55 187.871ZM192.353 188.919L192.347 186.126H192.717L196.246 182.182H198.95L194.609 187.014H194.13L192.353 188.919ZM190.244 192V178.909H192.558V192H190.244ZM196.406 192L193.21 187.532L194.769 185.902L199.173 192H196.406ZM203.317 192.198C202.695 192.198 202.134 192.087 201.636 191.866C201.142 191.64 200.749 191.308 200.46 190.869C200.174 190.43 200.031 189.888 200.031 189.245C200.031 188.691 200.134 188.233 200.338 187.871C200.543 187.509 200.822 187.219 201.176 187.001C201.529 186.784 201.928 186.62 202.371 186.509C202.818 186.394 203.281 186.311 203.758 186.26C204.333 186.2 204.8 186.147 205.158 186.1C205.516 186.049 205.776 185.972 205.938 185.87C206.104 185.763 206.187 185.599 206.187 185.378V185.339C206.187 184.858 206.044 184.485 205.759 184.221C205.473 183.957 205.062 183.825 204.525 183.825C203.958 183.825 203.509 183.948 203.176 184.195C202.848 184.442 202.627 184.734 202.512 185.071L200.351 184.764C200.521 184.168 200.803 183.669 201.195 183.268C201.587 182.864 202.066 182.561 202.633 182.361C203.2 182.156 203.826 182.054 204.512 182.054C204.985 182.054 205.456 182.109 205.925 182.22C206.394 182.331 206.822 182.514 207.21 182.77C207.597 183.021 207.909 183.364 208.143 183.799C208.382 184.234 208.501 184.777 208.501 185.429V192H206.276V190.651H206.2C206.059 190.924 205.861 191.18 205.605 191.418C205.354 191.653 205.036 191.842 204.653 191.987C204.274 192.128 203.828 192.198 203.317 192.198ZM203.918 190.498C204.382 190.498 204.785 190.406 205.126 190.223C205.467 190.036 205.729 189.788 205.912 189.482C206.1 189.175 206.193 188.84 206.193 188.478V187.321C206.121 187.381 205.997 187.436 205.823 187.487C205.652 187.538 205.46 187.583 205.247 187.621C205.034 187.66 204.823 187.694 204.615 187.724C204.406 187.754 204.225 187.779 204.071 187.8C203.726 187.847 203.417 187.924 203.144 188.031C202.872 188.137 202.656 188.286 202.499 188.478C202.341 188.665 202.262 188.908 202.262 189.207C202.262 189.633 202.418 189.955 202.729 190.172C203.04 190.389 203.436 190.498 203.918 190.498Z" fill="#0F9C8F"/>
</svg>
